<svg xmlns="http://www.w3.org/2000/svg" viewBox="0 0 477.26 512">
    <defs>
        <linearGradient id="Gradient1">
            <stop class="stop1" offset="0%" />
            <stop class="stop2" offset="100%" />
        </linearGradient>
    </defs>
    <path
        d="M223.82,37a224.08,224.08,0,0,0-175,218.57c0,123.48,100.46,224,224,224a222.4,222.4,0,0,0,172.8-81.43C309.86,391.73,201.39,279.29,201.39,142A256.31,256.31,0,0,1,223.82,37Zm49,475C131.42,512,16.4,397,16.4,255.6A256.41,256.41,0,0,1,251.85.05,16.23,16.23,0,0,1,267,24.74,223.47,223.47,0,0,0,233.85,142c0,123.49,100.46,224,224,224,6,0,12.16-.26,18.33-.75a16.23,16.23,0,0,1,15.12,24.68A256.28,256.28,0,0,1,272.8,512Z"
        transform="translate(-16.4)"
    />
    <path
        d="M93.26,292.35a14.55,14.55,0,1,1,0-20.57,14.56,14.56,0,0,1,0,20.57"
        transform="translate(-16.4)"
    />
    <path
        d="M85.49,251.87c-6.32,0-11.51-6-11.63-12.37-1-55,33.68-120.58,74.28-139.79a11.48,11.48,0,1,1,10,20.68c-29.56,14-61.91,68.24-60.95,118.73.12,6.43-5,12.75-11.42,12.75h-.23"
        transform="translate(-16.4)"
    />
</svg>