<svg xmlns="http://www.w3.org/2000/svg" viewBox="0 0 512 512">
	<defs>
		<linearGradient id="Gradient1">
			<stop class="stop1" offset="0%" />
			<stop class="stop2" offset="100%" />
		</linearGradient>
	</defs>
	<path
		d="M256,131.08A124.92,124.92,0,1,0,380.92,256,125.06,125.06,0,0,0,256,131.08Zm0,265.26c-77.38,0-140.34-63-140.34-140.34s63-140.34,140.34-140.34,140.34,63,140.34,140.34S333.38,396.34,256,396.34Z"
		transform="translate(0 0)"
	/>
	<path
		d="M256.55,68.63a7.69,7.69,0,0,1-7.68-7.71V7.71a7.68,7.68,0,1,1,15.36,0V60.92a7.69,7.69,0,0,1-7.68,7.71"
		transform="translate(0 0)"
	/>
	<path
		d="M158.46,94.76a7.71,7.71,0,0,1-6.68-3.85l-26.6-46.08a7.71,7.71,0,0,1,13.35-7.71L165.14,83.2a7.71,7.71,0,0,1-6.68,11.56"
		transform="translate(0 0)"
	/>
	<path
		d="M87.05,166.17a7.58,7.58,0,0,1-3.85-1l-46.08-26.6a7.71,7.71,0,0,1,7.71-13.35l46.08,26.6a7.71,7.71,0,0,1-3.86,14.39"
		transform="translate(0 0)"
	/>
	<path
		d="M60.91,262.93H7.71a7.68,7.68,0,1,1,0-15.36h53.2a7.68,7.68,0,1,1,0,15.36"
		transform="translate(0 0)"
	/>
	<path
		d="M41,387.86a7.71,7.71,0,0,1-3.86-14.39L83.2,346.86a7.71,7.71,0,0,1,7.71,13.36l-46.08,26.6a7.71,7.71,0,0,1-3.85,1"
		transform="translate(0 0)"
	/>
	<path
		d="M131.85,478.74a7.72,7.72,0,0,1-6.67-11.57l26.6-46.08a7.71,7.71,0,0,1,13.36,7.71l-26.61,46.08a7.72,7.72,0,0,1-6.68,3.86"
		transform="translate(0 0)"
	/>
	<path
		d="M256.55,512a7.68,7.68,0,0,1-7.68-7.71V451.08a7.68,7.68,0,1,1,15.36,0v53.21a7.68,7.68,0,0,1-7.68,7.71"
		transform="translate(0 0)"
	/>
	<path
		d="M380.15,478.74a7.72,7.72,0,0,1-6.68-3.86L346.86,428.8a7.71,7.71,0,0,1,13.36-7.71l26.6,46.08a7.72,7.72,0,0,1-6.67,11.57"
		transform="translate(0 0)"
	/>
	<path
		d="M471,387.86a7.68,7.68,0,0,1-3.85-1l-46.08-26.6a7.72,7.72,0,0,1,7.72-13.36l46.07,26.61A7.71,7.71,0,0,1,471,387.86"
		transform="translate(0 0)"
	/>
	<path
		d="M504.29,262.93h-53.2a7.68,7.68,0,1,1,0-15.36h53.2a7.68,7.68,0,1,1,0,15.36"
		transform="translate(0 0)"
	/>
	<path
		d="M425,166.17a7.71,7.71,0,0,1-3.87-14.39l46.08-26.6a7.71,7.71,0,0,1,7.71,13.35l-46.07,26.6a7.64,7.64,0,0,1-3.85,1"
		transform="translate(0 0)"
	/>
	<path
		d="M353.53,94.76a7.71,7.71,0,0,1-6.67-11.56l26.61-46.08a7.71,7.71,0,0,1,13.35,7.71l-26.6,46.08a7.71,7.71,0,0,1-6.69,3.85"
		transform="translate(0 0)"
	/>
	<path
		d="M338.88,234.26a9.24,9.24,0,0,1-9.13-7.84A62,62,0,0,0,309.4,188.8a53,53,0,0,0-38.82-12.87,9.25,9.25,0,1,1-1.39-18.45c38.67-2.93,72.57,25.5,78.85,66.11a9.25,9.25,0,0,1-7.73,10.56,10,10,0,0,1-1.43.11"
		transform="translate(0 0)"
	/>
	<path
		d="M334.65,256a9.26,9.26,0,1,1,9.25,9.25,9.25,9.25,0,0,1-9.25-9.25"
		transform="translate(0 0)"
	/>
</svg>