<svg xmlns="http://www.w3.org/2000/svg" viewBox="0 0 512 327.96">
	<defs>
		<linearGradient id="Gradient1">
			<stop class="stop1" offset="0%" />
			<stop class="stop2" offset="100%" />
		</linearGradient>
	</defs>
	<path
		d="M415.93,296.82a7.16,7.16,0,1,0,7.13-7.15,7.14,7.14,0,0,0-7.13,7.15"
		transform="translate(0 -89.41)"
	/>
	<path
		d="M406,238.12a43.69,43.69,0,0,0-20.76-5.18c-.35,0-.7-.08-1.08-.07a6.35,6.35,0,0,0-6.09,4.74,5.78,5.78,0,0,0-.22,1.73,6.2,6.2,0,0,0,6.67,5.95c16-.4,29.37,11,29.77,27,.09,3.53,3,4.26,6.47,4.26H421c3.58,0,6.4-1,6.33-4.64-.4-15.23-8.92-27.12-21.28-33.77"
		transform="translate(0 -89.41)"
	/>
	<path
		d="M465.87,170a15.51,15.51,0,0,1,15.28,15.56c0,1.86,1.46,3.94,3.29,3.94h.1c1.88,0,3.43-2,3.46-3.9,0-12-9.56-22.43-21.52-22.77-.18,0-.4.07-.58.07a3.48,3.48,0,0,0-3.42,3.5,3.54,3.54,0,0,0,3.39,3.6"
		transform="translate(0 -89.41)"
	/>
	<path
		d="M484.72,196a4.19,4.19,0,1,0,3.86,4.5,4.2,4.2,0,0,0-3.86-4.5"
		transform="translate(0 -89.41)"
	/>
	<path
		d="M499.43,200.51A39.8,39.8,0,0,1,485,222.36a39.2,39.2,0,0,1-25.28,8.19l-4.38-.13a95,95,0,0,0-9.53-11.5,96.45,96.45,0,0,0-59.8-29,132.15,132.15,0,0,0-34.55-41.53,58.15,58.15,0,0,1,107-.67l1.36,3.19,3.49.22a39.78,39.78,0,0,1,37.25,40.81A40.59,40.59,0,0,1,499.43,200.51ZM449.82,302.76A75.76,75.76,0,0,1,423.7,345c-1,.8-2,1.56-3,2.3a46.22,46.22,0,0,0-3.23-3.77,44.7,44.7,0,0,0-27.68-13.44,61,61,0,0,0-112.43,11l-.42,0a39.29,39.29,0,0,0-34.62,20.7l-106-.12a63.28,63.28,0,0,1-57.43-58.33c-.11-1.56-.19-3.14-.19-4.72A64.12,64.12,0,0,1,79.6,288a63.15,63.15,0,0,1,70.23-52.3l9.7,1.18,2.12-9.54A110.35,110.35,0,0,1,266.4,141.17c1,0,2-.07,3-.07a110,110,0,0,1,49.49,11.82,108.56,108.56,0,0,1,13.23,7.84,110.2,110.2,0,0,1,37.3,44l2.81,6,6.59.22a75,75,0,0,1,47,18.56c1.6,1.39,3.16,2.83,4.64,4.37s2.85,3.1,4.19,4.73a75.48,75.48,0,0,1,15.25,64.11Zm-30.5,79.54a35,35,0,0,1-12.1,19.53,34.47,34.47,0,0,1-22,7.81l-110.95-.13a29.25,29.25,0,0,1-26.6-28.11c0-.35,0-.7,0-1A29.29,29.29,0,0,1,277,351.06a28.54,28.54,0,0,1,3.6.23l4.47.54,1-4.41A51.07,51.07,0,0,1,382.11,337l1.29,2.77,3,.1a34.67,34.67,0,0,1,23.86,10.6c.71.72,1.35,1.47,2,2.23a34.62,34.62,0,0,1,7.7,18.69c.11,1.11.16,2.23.16,3.36A36,36,0,0,1,419.32,382.3ZM31.49,271.54a52,52,0,0,1,38.15-87.22,52.85,52.85,0,0,1,6.38.41l8,1,1.74-7.82a90.4,90.4,0,0,1,143.38-52A131.78,131.78,0,0,0,143,213.63c-.31,0-.61,0-.92,0A84.92,84.92,0,0,0,58,286.84,51.8,51.8,0,0,1,31.49,271.54Zm467.1-115.26a50.76,50.76,0,0,0-31.07-16.2,69.47,69.47,0,0,0-125.42,1.45,131.93,131.93,0,0,0-72.75-22,130.38,130.38,0,0,0-19,1.41,108.2,108.2,0,0,0-180,45.63c-.26,0-.5-.08-.76-.08A69.59,69.59,0,0,0,0,236a68.46,68.46,0,0,0,57.33,67.71,84.21,84.21,0,0,0,22.39,52.14c14.47,15.64,34.55,24.27,55.71,26l102.31-.43a38.71,38.71,0,0,0,10.38,25.29c6.7,7.23,16,9.83,25.77,10.64l111.32-2h0c10.28,0,20.31-1.45,28.29-7.93S426.87,393.78,429,384a42.88,42.88,0,0,0,.26-17.91,84.08,84.08,0,0,0,8-5.67c16.95-13.78,28.88-31.76,33.56-53a96.86,96.86,0,0,0-10-68.32c11.29-.16,22.21-2.25,31.11-9.09,9.16-7,15.72-15.58,18.5-26.7a49.94,49.94,0,0,0,1.53-11,50.83,50.83,0,0,0-13.39-35.95Z"
		transform="translate(0 -89.41)"
	/>
	<path
		d="M404.4,356.44A19.79,19.79,0,0,0,389.47,350c-.16,0-.35-.06-.51-.05a2.89,2.89,0,0,0-2.92,2.95,2.81,2.81,0,0,0,3.08,2.68,13.85,13.85,0,0,1,9.11,3.06c2.75,2.26,4.57,4.71,4.66,8.65.05,1.63,1.39,1.05,3,1.05H406c1.67,0,3,.43,2.92-1.23-.09-4.54-1.79-7.61-4.49-10.65"
		transform="translate(0 -89.41)"
	/>
	<path
		d="M406.94,382.86a3.3,3.3,0,0,0,.4-6.58c-.85.26-1.67.52-2.52.76a3.24,3.24,0,0,0-1.18,2.51,3.31,3.31,0,0,0,3.3,3.31"
		transform="translate(0 -89.41)"
	/>
</svg>