<svg xmlns="http://www.w3.org/2000/svg" viewBox="0 0 512.419 409.621">
    <defs>
        <linearGradient id="Gradient1">
            <stop class="stop1" offset="0%" />
            <stop class="stop2" offset="100%" />
        </linearGradient>
    </defs>
    <path
        d="M403.235,205.088a35.5,35.5,0,0,1,36.7,34.454c.106,4.366,3.679,6.51,7.992,6.51h.212c4.419,0,7.886-2.541,7.78-6.96-.715-28.1-23.816-49.009-51.761-49.009-.45,0-.873-.211-1.323-.211a7.744,7.744,0,0,0-7.78,7.939c.106,4.392,3.784,7.383,8.177,7.277"
        transform="translate(0 -50.169)"
    />
    <path
        d="M441.9,268.545a8.812,8.812,0,1,0,8.812-8.812,8.786,8.786,0,0,0-8.812,8.812"
        transform="translate(0 -50.169)"
    />
    <path
        d="M483.655,275.848a93.385,93.385,0,0,1-32.179,52.026,91.8,91.8,0,0,1-58.561,20.773l-54.592-.053q.079-3.255.079-6.589c0-79.97-69.464-143.109-72.428-145.756l-7.462-6.668-7.463,6.668c-2.963,2.647-72.427,65.786-72.427,145.756,0,2.169.026,4.286.079,6.4l-81.187-.08a78,78,0,0,1,7.013-155.679,81.419,81.419,0,0,1,9.606.609l11.934,1.482,2.62-11.749a135.973,135.973,0,0,1,255.892-27.813l3.44,7.36,8.124.283a92.956,92.956,0,0,1,89.708,92.862A94.336,94.336,0,0,1,483.655,275.848ZM258.512,437.4c-29.8,0-49.247-23.129-55.413-64.516a201.877,201.877,0,0,1-2.011-24.451c-.053-2.117-.106-4.234-.106-6.43,0-55.386,40.462-103.707,57.53-121.648,17.1,17.941,57.529,66.288,57.529,121.648,0,2.222-.053,4.419-.106,6.562a198.47,198.47,0,0,1-1.958,23.869C307.891,414.115,288.414,437.4,258.512,437.4ZM478.759,172.587a118.894,118.894,0,0,0-73.672-35.77,162.536,162.536,0,0,0-299.423,29.252c-.37,0-.74-.053-1.137-.053A104.348,104.348,0,0,0,27.786,341.264c17.835,19.238,42.551,29.9,68.59,32.046l84.124-.344c3.07,23.631,9.871,42.869,20.377,57.37,13.945,19.265,33.9,29.453,57.635,29.453S302.2,449.6,316.173,430.336c10.585-14.634,17.413-33.581,20.429-57.5l56.286.238c27.389,0,54.116-8.415,75.339-25.668,20.879-16.962,35.565-39.429,41.334-65.574a121.821,121.821,0,0,0,2.858-26.013,119.118,119.118,0,0,0-33.66-83.229Z"
        transform="translate(0 -50.169)"
    />
    <path
        d="M222.973,334.674a5.6,5.6,0,1,0-11.115-1.349q-.912,7.661-1.058,15.136h11.194c.1-4.525.423-9.129.979-13.787"
        transform="translate(0 -50.169)"
    />
    <path
        d="M217.072,392.045c6.4,17.6,16.935,28.13,29.638,29.638a5.435,5.435,0,0,0,.661.053,5.6,5.6,0,0,0,.662-11.167c-8.177-.979-15.64-9.13-20.456-22.361a87.908,87.908,0,0,1-3.943-15.4l-11.352.053a100.634,100.634,0,0,0,4.79,19.185"
        transform="translate(0 -50.169)"
    />
    <path
        d="M212.282,372.86l11.352-.053a124.6,124.6,0,0,1-1.64-24.346H210.8a138.016,138.016,0,0,0,1.482,24.4"
        transform="translate(0 -50.169)"
    />
    <path
        d="M211.442,337.263s-4.239,37.286,8.286,61.182l10.826-3.341s-11.521-23.1-7.977-56.679Z"
        transform="translate(0 -50.169)"
    />
</svg>