<svg xmlns="http://www.w3.org/2000/svg" viewBox="0 0 512 428.94">
    <defs>
        <linearGradient id="Gradient1">
            <stop class="stop1" offset="0%" />
            <stop class="stop2" offset="100%" />
        </linearGradient>
    </defs>
    <path
        d="M169.57,286.21a12.18,12.18,0,1,1,0-17.22,12.17,12.17,0,0,1,0,17.22"
        transform="translate(0 -41.48)"
    />
    <path
        d="M163.07,250.12a9.49,9.49,0,0,1-9.73-9.26c-.87-46,28.19-100.38,62.17-116.46a9.79,9.79,0,0,1,8.34,17.72c-24.75,11.71-51.83,56.09-51,98.36a9.45,9.45,0,0,1-9.56,9.64h-.19"
        transform="translate(0 -41.48)"
    />
    <path
        d="M386.17,293.59l89.59.1a27.86,27.86,0,0,0,17.76-6.3,28.34,28.34,0,0,0,9.76-15.78,28.73,28.73,0,0,0,.67-6.11,28.19,28.19,0,0,0-27.21-28.17l-2.46-.08-1-2.24a41.23,41.23,0,0,0-77.6,8.44l-.79,3.56-3.63-.44a22.78,22.78,0,0,0-2.91-.19,23.65,23.65,0,0,0-2.13,47.21Zm89.58,5.77h0L385.67,301h0a31.19,31.19,0,0,1-29.08-31.15,31.68,31.68,0,0,1,31.71-31.63c.12,0,.23,0,.35,0a49.29,49.29,0,0,1,90.8-8.85A36.27,36.27,0,0,1,512,265.5a36.58,36.58,0,0,1-.86,7.85c-1.75,7.93-6.21,13.95-12.54,19.09s-14.54,6.92-22.85,6.92Z"
        transform="translate(0 -41.48)"
    />
    <path
        d="M492.44,263.07a2.31,2.31,0,0,1-2.42-2.22,10.82,10.82,0,0,0-11.13-10.51,2.72,2.72,0,0,1-.12-5.41h.4a15.88,15.88,0,0,1,15.7,15.48,2.56,2.56,0,0,1-2.36,2.66h-.07"
        transform="translate(0 -41.48)"
    />
    <path
        d="M490.62,269.39a2.67,2.67,0,1,1,2.67,2.67,2.67,2.67,0,0,1-2.67-2.67"
        transform="translate(0 -41.48)"
    />
    <path
        d="M192.66,359.42a50.54,50.54,0,0,1,45.59,29l1.28,2.72,3,.1a34.4,34.4,0,0,1,32.38,41.84,33.4,33.4,0,0,1-1.19,4c3.18.81,6.4,1.53,9.65,2.18.44-1.35.83-2.71,1.14-4.1a44.23,44.23,0,0,0-38.67-53.58,60.12,60.12,0,0,0-83.11-24.09q2.7,4.14,5.6,8.12a50.47,50.47,0,0,1,24.32-6.27"
        transform="translate(0 -41.48)"
    />
    <path
        d="M241.34,460.06,132,459.94a28.86,28.86,0,0,1,2.6-57.61,29.52,29.52,0,0,1,3.55.22l4.42.54,1-4.34A49.84,49.84,0,0,1,148.86,385q-3.23-4.25-6.23-8.63A60.47,60.47,0,0,0,135,392.5h-.42a38.68,38.68,0,0,0-3.21,77.22h0l109.93.7h0a44.65,44.65,0,0,0,23.58-7.2c-4.76-1.26-9.41-2.77-14-4.34a34.33,34.33,0,0,1-9.54,1.18"
        transform="translate(0 -41.48)"
    />
    <path
        d="M502.75,353.64a13.57,13.57,0,0,0-12.67-6.45c-5.16.42-10.33.63-15.35.63-103.37,0-187.47-84.1-187.47-187.47A187.07,187.07,0,0,1,315,62.19a13.58,13.58,0,0,0-12.66-20.66A214.52,214.52,0,0,0,142.63,376.37q3,4.39,6.23,8.63a50,50,0,0,1,19.48-19.31q-2.91-4-5.6-8.12A187.46,187.46,0,0,1,278.87,72.48a214.48,214.48,0,0,0-18.77,87.87c0,114.93,90.8,209.05,204.42,214.4a187.59,187.59,0,0,1-181.14,64.59c-3.25-.65-6.47-1.37-9.65-2.18A34.61,34.61,0,0,1,263,452.37a34,34,0,0,1-12.14,6.34q6.94,2.37,14.1,4.25a214.59,214.59,0,0,0,237.75-95.1,13.56,13.56,0,0,0,0-14.22"
        transform="translate(0 -41.48)"
    />
    <path
        d="M261.7,423.77h.08c1.63,0,2.92-1.78,2.88-3.41a19.22,19.22,0,0,0-19.15-18.72c-.17,0-.33-.18-.5-.18a2.84,2.84,0,1,0,.16,5.68c7.29-.18,13.39,6.1,13.58,13.4a3.28,3.28,0,0,0,2.95,3.23"
        transform="translate(0 -41.48)"
    />
    <path
        d="M262.73,427.15a3.26,3.26,0,1,0,3.26,3.26,3.25,3.25,0,0,0-3.26-3.26"
        transform="translate(0 -41.48)"
    />
    <path
        d="M19.1,299.88,77,300a18,18,0,0,0,11.47-4.07,18.2,18.2,0,0,0-10.84-32.33L76,263.5l-.67-1.44a26.62,26.62,0,0,0-50.11,5.44l-.52,2.3-2.34-.28A15.24,15.24,0,0,0,5.2,284.68a15.27,15.27,0,0,0,13.9,15.2ZM77,305.54h0l-58.16-.37h0a20.52,20.52,0,0,1,1.69-41h.23a31.83,31.83,0,0,1,58.63-5.74A23.43,23.43,0,0,1,99.8,286.81a24,24,0,0,1-8.1,13.3A23.61,23.61,0,0,1,77,305.54Z"
        transform="translate(0 -41.48)"
    />
    <path
        d="M87.72,281.22c-.84,0-1.54-1.11-1.56-2a7.2,7.2,0,0,0-7.19-7,1.65,1.65,0,0,1-1.6-1.63,1.61,1.61,0,0,1,1.52-1.66l.27,0c5.47,0,10,4.79,10.13,10.29,0,.87-.66,2-1.52,2h0"
        transform="translate(0 -41.48)"
    />
    <path
        d="M86.55,284.26A1.72,1.72,0,1,1,88.27,286a1.72,1.72,0,0,1-1.72-1.72"
        transform="translate(0 -41.48)"
    />
    <path
        d="M165.9,355.89s-21.14,11.85-25.9,25.9l5.42,3.46,3,.55s7.86-15.61,24.24-22.22Z"
        transform="translate(0 -41.48)"
    />
    <path
        d="M275.26,431.39s-3.45,23.69-28.13,28.29l15.94,4.76s17.36-10.11,21.51-29.47Z"
        transform="translate(0 -41.48)"
    />
</svg>