<svg xmlns="http://www.w3.org/2000/svg" viewBox="0 0 511.34 375.05">
    <defs>
        <linearGradient id="Gradient1">
            <stop class="stop1" offset="0%" />
            <stop class="stop2" offset="100%" />
        </linearGradient>
    </defs>
    <path
        d="M325.9,151.3a101.7,101.7,0,0,0-93,60.86c3.49,1.27,6.94,2.7,10.31,4.29A90.4,90.4,0,1,1,373.13,330a85.75,85.75,0,0,1,2.73,11.33,101.55,101.55,0,0,0-50-190"
        transform="translate(0.12 -67.58)"
    />
    <path
        d="M327.17,117.26c3.09,0,5-2.5,5-5.58V73.16c0-3.08-1.92-5.58-5-5.58s-5,2.5-5,5.58v38.52c0,3.08,1.93,5.58,5,5.58"
        transform="translate(0.12 -67.58)"
    />
    <path
        d="M250.47,133.39a5.58,5.58,0,0,0,9.67-5.59L240.89,94.45a5.58,5.58,0,1,0-9.67,5.58l19.25,33.36"
        transform="translate(0.12 -67.58)"
    />
    <path
        d="M167.47,167.86l33.35,19.26a5.58,5.58,0,1,0,5.59-9.67l-33.36-19.26a5.58,5.58,0,0,0-5.58,9.67"
        transform="translate(0.12 -67.58)"
    />
    <path
        d="M401.35,372.39a5.58,5.58,0,1,0-9.66,5.58l19.25,33.35a5.57,5.57,0,0,0,4.83,2.8,5.59,5.59,0,0,0,4.84-8.38l-19.26-33.35"
        transform="translate(0.12 -67.58)"
    />
    <path
        d="M484.34,337.91,451,318.66a5.58,5.58,0,1,0-5.57,9.67l33.35,19.25a5.44,5.44,0,0,0,2.79.75,5.58,5.58,0,0,0,2.78-10.42"
        transform="translate(0.12 -67.58)"
    />
    <path
        d="M505.62,248.9h-38.5c-3.09,0-5.58,1.93-5.58,5s2.49,5,5.58,5h38.5c3.09,0,5.6-1.93,5.6-5s-2.51-5-5.6-5"
        transform="translate(0.12 -67.58)"
    />
    <path
        d="M448.2,187.86a5.63,5.63,0,0,0,2.79-.74l33.35-19.26a5.58,5.58,0,0,0-5.57-9.67l-33.35,19.26a5.58,5.58,0,0,0,2.78,10.41"
        transform="translate(0.12 -67.58)"
    />
    <path
        d="M393.71,135.43a5.6,5.6,0,0,0,7.64-2L420.61,100a5.58,5.58,0,0,0-9.67-5.58L391.69,127.8a5.57,5.57,0,0,0,2,7.63"
        transform="translate(0.12 -67.58)"
    />
    <path
        d="M336.47,194.93a38.25,38.25,0,0,1,28.08,9.31,44.8,44.8,0,0,1,14.74,27.24,6.7,6.7,0,0,0,6.6,5.67,7.28,7.28,0,0,0,1-.08,6.71,6.71,0,0,0,5.6-7.64c-4.55-29.4-29.08-50-57.08-47.86a6.7,6.7,0,1,0,1,13.36"
        transform="translate(0.12 -67.58)"
    />
    <path
        d="M382.84,252.89a6.7,6.7,0,1,0,6.7-6.7,6.69,6.69,0,0,0-6.7,6.7"
        transform="translate(0.12 -67.58)"
    />
    <path
        d="M283,282.33l2.55,5.42,6,.21a68.46,68.46,0,0,1,63.67,50.44A89.61,89.61,0,0,0,373.13,330a88.06,88.06,0,0,0-75-61.14,120.21,120.21,0,0,0-55-52.36,89,89,0,0,0-6,18.83,100.46,100.46,0,0,1,45.82,47"
        transform="translate(0.12 -67.58)"
    />
    <path
        d="M357.63,356.34a68.65,68.65,0,0,1-25.17,53.15c-.14.11-.28.23-.28.35v22a103.32,103.32,0,0,0,12.62-8.42c15.38-12.5,26.11-28.73,30.36-48a87,87,0,0,0,.72-34.13,100.19,100.19,0,0,1-18.59,8.21,64.92,64.92,0,0,1,.34,6.85"
        transform="translate(0.12 -67.58)"
    />
    <path
        d="M322.15,417.1c-12,5-21.06,7.69-32.25,7.69l-217.85-.25A57.41,57.41,0,0,1,76.9,309.93a56.22,56.22,0,0,1,7,.45l8.78,1.07,1.92-8.64a100.14,100.14,0,0,1,97.69-78.24,99.5,99.5,0,0,1,34.45,6.18,101.13,101.13,0,0,1,6.09-18.59A119.27,119.27,0,0,0,117,231.7,120.27,120.27,0,0,0,77.7,290.35c-.28,0-.56,0-.84,0a76.79,76.79,0,0,0-56.5,129c13.12,14.18,31.32,21.74,50.51,23.33h0l218.29-1.2h0c11.31,0,23.19-1.62,33.57-5.45-.8-1-.6-2-.6-3.38V417.1"
        transform="translate(0.12 -67.58)"
    />
    <path
        d="M237.22,235.28a89,89,0,0,1,6-18.83c-3.37-1.59-6.82-3-10.31-4.29a101.13,101.13,0,0,0-6.09,18.59,102.64,102.64,0,0,1,10.43,4.53"
        transform="translate(0.12 -67.58)"
    />
    <path
        d="M355.24,338.4a67.34,67.34,0,0,1,2.05,11.09,100.6,100.6,0,0,0,18.57-8.21A85.75,85.75,0,0,0,373.13,330a89.61,89.61,0,0,1-17.89,8.45"
        transform="translate(0.12 -67.58)"
    />
    <path
        d="M322.15,417.1v15.51c0,1.36-.2,2.41.6,3.38,3.37-1.24,5.42-2.51,9.43-4.18v-22c-4,2.81-8,5.23-10,7.26"
        transform="translate(0.12 -67.58)"
    />
    <path
        d="M335.49,342.79c-1.2-20-17.87-34.91-38-34.91-.32,0-.66-.05-1,0a5.78,5.78,0,0,0-5.74,5.91,5.69,5.69,0,0,0,6,5.48,26,26,0,0,1,26.94,24c.72,0,1.44.06,2.16.06a89.2,89.2,0,0,0,9.59-.52"
        transform="translate(0.12 -67.58)"
    />
    <path
        d="M329.69,349.18h.16c3.25,0,5.82-1.84,5.74-5.09,0-.44-.08-.86-.1-1.3a89.2,89.2,0,0,1-9.59.52c-.72,0-1.44,0-2.16-.06,0,.39.08.78.08,1.17.08,3.21,2.7,4.76,5.87,4.76"
        transform="translate(0.12 -67.58)"
    />
    <path
        d="M331.74,372.28a6.49,6.49,0,1,0-6.48-6.48,6.49,6.49,0,0,0,6.48,6.48"
        transform="translate(0.12 -67.58)"
    />
    <path
        d="M220.87,228.77s12.86,3.89,20.81,8.91l3.87-8.69-.76-11.77s-12.51-5.73-15.59-6.32l-.46,8.1Z"
        transform="translate(0.12 -67.58)"
    />
    <path
        d="M371.92,326.36a95.23,95.23,0,0,1,4.73,20.24l-8.18,3.74-11,1.59s-1-12.75-3.92-18.81Z"
        transform="translate(0.12 -67.58)"
    />
    <path
        d="M375.11,328.7s-5.83,3.94-6.72,4.09l3,4.5,3,4.84s3.29-1.82,5.44-3.21Z"
        transform="translate(0.12 -67.58)"
    />
    <path
        d="M244.37,213.89S242,218.7,242.19,219l-10.33-5.51,1-1.28s1.31-2.86,1.61-3.48Z"
        transform="translate(0.12 -67.58)"
    />
    <path
        d="M334.61,407.66s-13.82,11.17-16,10.88l-.65,8.3,2.2,10s11.57-3.83,18.95-9.38l.61-14.36Z"
        transform="translate(0.12 -67.58)"
    />
    <path
        d="M323.32,340.1a35.7,35.7,0,0,1,.53,4.76h9.28l2.46-.77s-.52-5.12-.58-5.42Z"
        transform="translate(0.12 -67.58)"
    />
</svg>