<svg xmlns="http://www.w3.org/2000/svg" viewBox="0 0 512.16 468.13">
    <defs>
        <linearGradient id="Gradient1">
            <stop class="stop1" offset="0%" />
            <stop class="stop2" offset="100%" />
        </linearGradient>
    </defs>
    <path
        d="M97.47,318.88l295.24.34a91.75,91.75,0,0,0,58.53-20.77,93,93,0,0,0,34.38-72.14,92.9,92.9,0,0,0-89.68-92.83l-8.11-.28-3.44-7.36a135.9,135.9,0,0,0-255.75,27.8L126,165.37l-11.92-1.45a76.94,76.94,0,0,0-9.6-.62,77.95,77.95,0,0,0-7,155.58Zm295.24,22h0L96.35,343c-26-2.15-50.75-12.36-68.56-31.61A103.08,103.08,0,0,1,0,240.86c0-57.62,46.88-104.29,104.49-104.29.38,0,.76.1,1.14.1a162.44,162.44,0,0,1,299.25-29.18A119.49,119.49,0,0,1,512.16,226.3a121.05,121.05,0,0,1-2.84,25.88c-5.78,26.14-20.47,47.47-41.35,64.44-21.17,17.23-47.9,24.29-75.26,24.29Z"
        transform="translate(0 -20.88)"
    />
    <path
        d="M447.69,213.49c-4.31,0-7.86-.56-8-4.91-.51-19.73-17-33.92-36.68-33.42-4.39.13-8.08-2.65-8.19-7.06a7.67,7.67,0,0,1,7.78-7.83c.44,0,.9.16,1.33.16,27.93,0,51,19.57,51.73,47.65.11,4.41-3.36,5.41-7.78,5.41h-.22"
        transform="translate(0 -20.88)"
    />
    <path
        d="M441.67,239.14a8.82,8.82,0,1,1,8.81,8.8,8.82,8.82,0,0,1-8.81-8.8"
        transform="translate(0 -20.88)"
    />
    <path
        d="M180.4,407.92c0,22-8.89,30.84-19.87,30.84s-19.88-8.88-19.88-30.84,19.88-39.75,19.88-39.75S180.4,386,180.4,407.92"
        transform="translate(0 -20.88)"
    />
    <path
        d="M228,458.17c0,22-8.9,30.84-19.88,30.84s-19.87-8.88-19.87-30.84,19.87-39.75,19.87-39.75S228,436.22,228,458.17"
        transform="translate(0 -20.88)"
    />
    <path
        d="M323.22,458.17c0,22-8.89,30.84-19.87,30.84s-19.87-8.88-19.87-30.84,19.87-39.75,19.87-39.75,19.87,17.8,19.87,39.75"
        transform="translate(0 -20.88)"
    />
    <path
        d="M275.62,407.92c0,22-8.9,30.84-19.88,30.84s-19.87-8.88-19.87-30.84,19.87-39.75,19.87-39.75,19.88,17.8,19.88,39.75"
        transform="translate(0 -20.88)"
    />
    <path
        d="M370.83,407.92c0,22-8.89,30.84-19.87,30.84s-19.87-8.88-19.87-30.84S351,368.17,351,368.17s19.87,17.8,19.87,39.75"
        transform="translate(0 -20.88)"
    />
</svg>