<svg xmlns="http://www.w3.org/2000/svg" viewBox="0 0 480.17 512.1">
    <defs>
        <linearGradient id="Gradient1">
            <stop class="stop1" offset="0%" />
            <stop class="stop2" offset="100%" />
        </linearGradient>
    </defs>
    <path
        d="M255.31,172.7c-5.92,0-11.72-4.52-11.72-10.1V10c0-5.57,5.8-10.09,11.72-10.09S267,4.47,267,10V162.6c0,5.58-5.79,10.1-11.72,10.1"
        transform="translate(-15.91 0.05)"
    />
    <path
        d="M257.4,91.33a10.71,10.71,0,0,1-6.21-2l-67.9-48.09a9.37,9.37,0,0,1-2-13.63,10.77,10.77,0,0,1,14.47-1.92l67.9,48.1a9.35,9.35,0,0,1,2.05,13.62,10.55,10.55,0,0,1-8.26,3.88"
        transform="translate(-15.91 0.05)"
    />
    <path
        d="M257.41,91.33a10.55,10.55,0,0,1-8.26-3.88,9.35,9.35,0,0,1,2-13.62l67.91-48.1a10.77,10.77,0,0,1,14.47,1.92,9.36,9.36,0,0,1-2.05,13.63L263.61,89.37a10.65,10.65,0,0,1-6.2,2"
        transform="translate(-15.91 0.05)"
    />
    <path
        d="M342.85,215.91a10,10,0,0,1-6.76-17.35L447.25,96.44a10,10,0,0,1,13.52,14.73L349.62,213.28a10,10,0,0,1-6.77,2.63"
        transform="translate(-15.91 0.05)"
    />
    <path
        d="M402.13,161.46a10,10,0,0,1-9.9-8.71L381.48,70.4a10,10,0,0,1,19.83-2.58l10.74,82.34a10,10,0,0,1-8.62,11.21,9.58,9.58,0,0,1-1.3.09"
        transform="translate(-15.91 0.05)"
    />
    <path
        d="M483.29,179.13a9.8,9.8,0,0,1-2.14-.23L400,161.22a10,10,0,0,1,4.25-19.53l81.14,17.68a10,10,0,0,1-2.11,19.76"
        transform="translate(-15.91 0.05)"
    />
    <path
        d="M172.77,216a10.07,10.07,0,0,1-6.59-2.44L48.87,112.71A10.1,10.1,0,1,1,62,97.39L179.36,198.26A10.1,10.1,0,0,1,172.77,216"
        transform="translate(-15.91 0.05)"
    />
    <path
        d="M110.21,162.22a10.07,10.07,0,0,1-10-11.33l9.89-80.76a10.1,10.1,0,1,1,20.05,2.46l-9.88,80.76a10.1,10.1,0,0,1-10,8.87"
        transform="translate(-15.91 0.05)"
    />
    <path
        d="M26,179.1a10.1,10.1,0,0,1-2-20l84.18-16.87a10.1,10.1,0,1,1,4,19.81L28,178.91a10.39,10.39,0,0,1-2,.19"
        transform="translate(-15.91 0.05)"
    />
    <path
        d="M184.69,296.06l71.82,42.39,72.73-41.15.87-83.56L258.3,171.35,185.57,212.5Zm71.54,73.36-98.51-58.15,1.19-114.5,99.67-56.39,98.51,58.15L355.9,313l-99.67,56.39Z"
        transform="translate(-15.91 0.05)"
    />
    <path
        d="M313.83,273.39h0c-3,0-5.36-1.63-5.34-4.59l.2-41.62c0-3,2.42-4.57,5.37-4.57h0a5.05,5.05,0,0,1,5.34,5L319.19,269c0,2.95-2.41,4.35-5.36,4.35"
        transform="translate(-15.91 0.05)"
    />
    <path
        d="M317.72,292.54a5.81,5.81,0,1,0-7.9-2.27,5.8,5.8,0,0,0,7.9,2.27"
        transform="translate(-15.91 0.05)"
    />
    <path
        d="M256.69,339.3c5.92,0,11.72,4.52,11.72,10.1V502c0,5.57-5.8,10.09-11.72,10.09S245,507.53,245,502V349.4c0-5.58,5.79-10.1,11.72-10.1"
        transform="translate(-15.91 0.05)"
    />
    <path
        d="M254.6,420.67a10.71,10.71,0,0,1,6.21,2l67.9,48.09a9.37,9.37,0,0,1,2.05,13.63,10.77,10.77,0,0,1-14.47,1.92l-67.9-48.1a9.35,9.35,0,0,1-2-13.62,10.55,10.55,0,0,1,8.26-3.88"
        transform="translate(-15.91 0.05)"
    />
    <path
        d="M254.59,420.67a10.55,10.55,0,0,1,8.26,3.88,9.35,9.35,0,0,1-2,13.62l-67.91,48.1a10.77,10.77,0,0,1-14.47-1.92,9.36,9.36,0,0,1,2-13.63l67.91-48.09a10.65,10.65,0,0,1,6.2-2"
        transform="translate(-15.91 0.05)"
    />
    <path
        d="M169.15,296.09a10,10,0,0,1,6.76,17.35L64.75,415.56a10,10,0,0,1-13.52-14.73L162.38,298.72a10,10,0,0,1,6.77-2.63"
        transform="translate(-15.91 0.05)"
    />
    <path
        d="M109.87,350.54a10,10,0,0,1,9.9,8.71l10.75,82.35a10,10,0,0,1-19.83,2.58L100,361.84a10,10,0,0,1,8.62-11.21,9.58,9.58,0,0,1,1.3-.09"
        transform="translate(-15.91 0.05)"
    />
    <path
        d="M28.71,332.87a9.8,9.8,0,0,1,2.14.23L112,350.78a10,10,0,1,1-4.25,19.53L26.6,352.63a10,10,0,0,1,2.11-19.76"
        transform="translate(-15.91 0.05)"
    />
    <path
        d="M339.23,296a10.07,10.07,0,0,1,6.59,2.44L463.13,399.29A10.1,10.1,0,1,1,450,414.61L332.64,313.74A10.1,10.1,0,0,1,339.23,296"
        transform="translate(-15.91 0.05)"
    />
    <path
        d="M401.79,349.78a10.07,10.07,0,0,1,10,11.33l-9.89,80.76a10.1,10.1,0,1,1-20.05-2.46l9.88-80.76a10.1,10.1,0,0,1,10-8.87"
        transform="translate(-15.91 0.05)"
    />
    <path
        d="M486,332.9a10.1,10.1,0,0,1,2,20l-84.18,16.87a10.1,10.1,0,1,1-4-19.81L484,333.09a10.39,10.39,0,0,1,2-.19"
        transform="translate(-15.91 0.05)"
    />
</svg>